HIERARCHY
ROOT Hips
{
	OFFSET 0.000000 0.000000 0.000000
	CHANNELS 6 Xposition Yposition Zposition Zrotation Yrotation Xrotation 
	JOINT LowerBack
	{
		OFFSET 0.000000 0.000000 0.000000
		CHANNELS 3 Zrotation Yrotation Xrotation
		JOINT Spine
		{
			OFFSET 0.028270 2.035590 -0.193380
			CHANNELS 3 Zrotation Yrotation Xrotation
			JOINT Spine1
			{
				OFFSET 0.056720 2.048850 -0.042750
				CHANNELS 3 Zrotation Yrotation Xrotation
				JOINT Neck
				{
					OFFSET 0.000000 0.000000 0.000000
					CHANNELS 3 Zrotation Yrotation Xrotation
					JOINT Neck1
					{
						OFFSET -0.054170 1.746240 0.172020
						CHANNELS 3 Zrotation Yrotation Xrotation
						JOINT Head
						{
							OFFSET 0.104070 1.761360 -0.123970
							CHANNELS 3 Zrotation Yrotation Xrotation
							End Site
							{
								OFFSET 0.000000 0.000000 0.000000
							}
						}
					}
				}
				JOINT LeftShoulder
				{
					OFFSET 0.000000 0.000000 0.000000
					CHANNELS 3 Zrotation Yrotation Xrotation
					JOINT LeftArm
					{
						OFFSET 3.362410 1.200890 -0.311210
						CHANNELS 3 Zrotation Yrotation Xrotation
						JOINT LeftForeArm
						{
							OFFSET 4.983000 -0.000000 -0.000000
							CHANNELS 3 Zrotation Yrotation Xrotation
							JOINT LeftHand
							{
								OFFSET 3.483560 -0.000000 -0.000000
								CHANNELS 3 Zrotation Yrotation Xrotation
								JOINT LeftFingerBase
								{
									OFFSET 0.000000 0.000000 0.000000
									CHANNELS 3 Zrotation Yrotation Xrotation
									JOINT LeftHandIndex1
									{
										OFFSET 0.715260 -0.000000 -0.000000
										CHANNELS 3 Zrotation Yrotation Xrotation
										End Site
										{
											OFFSET 0.000000 0.000000 0.000000
										}
									}
								}
								JOINT LThumb
								{
									OFFSET 0.000000 0.000000 0.000000
									CHANNELS 3 Zrotation Yrotation Xrotation
									End Site
									{
										OFFSET 0.000000 0.000000 0.000000
									}
								}
							}
						}
					}
				}
				JOINT RightShoulder
				{
					OFFSET 0.000000 0.000000 0.000000
					CHANNELS 3 Zrotation Yrotation Xrotation
					JOINT RightArm
					{
						OFFSET -3.136600 1.374050 -0.404650
						CHANNELS 3 Zrotation Yrotation Xrotation
						JOINT RightForeArm
						{
							OFFSET -5.241900 -0.000000 -0.000000
							CHANNELS 3 Zrotation Yrotation Xrotation
							JOINT RightHand
							{
								OFFSET -3.444170 -0.000000 -0.000000
								CHANNELS 3 Zrotation Yrotation Xrotation
								JOINT RightFingerBase
								{
									OFFSET 0.000000 0.000000 0.000000
									CHANNELS 3 Zrotation Yrotation Xrotation
									JOINT RightHandIndex1
									{
										OFFSET -0.622530 -0.000000 -0.000000
										CHANNELS 3 Zrotation Yrotation Xrotation
										End Site
										{
											OFFSET 0.000000 0.000000 0.000000
										}
									}
								}
								JOINT RThumb
								{
									OFFSET 0.000000 0.000000 0.000000
									CHANNELS 3 Zrotation Yrotation Xrotation
									End Site
									{
										OFFSET 0.000000 0.000000 0.000000
									}
								}
							}
						}
					}
				}
			}
		}
	}
}
}
MOTION
Frames: 7
Frame Time: 0.008333
-9.923833 14.907147 -1.304747 -45.559296 79.041714 -15.187020 -3.573292 1.641973 7.271012 -1.490529 2.013302 -1.539579 -5.095334 2.011036 0.078645 9.544461 -8.377177 -8.749613 -1.665558 -0.082754 -0.730742 0.000000 0.000000 0.000000 0.781060 16.470209 2.868131 -75.560849 27.565528 11.794341 -0.872759 -71.237454 0.005744 -3.071314 1.506522 -0.038653 0.045853 0.082991 0.000000 0.000000 0.000000 0.000000 0.000000 0.000000 0.000000 7.181538 -1.290854 0.994531 53.512910 24.069939 18.585134 179.478305 83.544395 -179.988425 0.581792 5.914362 0.030701 0.048256 -0.496015 -0.000000 0.000000 0.000000 0.000000 0.000000 0.000000 0.000000 
-9.708124 14.871783 -1.295564 -44.763211 78.996464 -14.598303 -3.998924 1.647198 7.320933 -1.605337 2.022152 -1.556153 -5.199628 2.019874 -0.006168 9.697859 -8.252491 -8.739529 -1.728582 -0.087506 -0.731423 0.000000 0.000000 0.000000 0.651429 16.219936 2.885110 -75.162592 26.895683 11.743293 -0.891912 -70.939535 0.005595 -2.961642 1.573737 -0.039039 0.043327 0.082907 0.000000 0.000000 0.000000 0.000000 0.000000 0.000000 0.000000 7.555861 -1.126452 1.039151 53.839294 23.479078 18.717508 179.490364 83.734964 -179.988504 0.554073 5.950224 0.029323 0.049037 -0.496552 -0.000000 0.000000 0.000000 0.000000 0.000000 0.000000 0.000000 
-9.495513 14.840108 -1.287055 -44.039277 78.996999 -14.051479 -4.393936 1.642665 7.375075 -1.713407 2.020008 -1.571413 -5.304424 2.017362 -0.093060 9.828813 -8.116425 -8.722434 -1.797742 -0.092776 -0.731029 0.000000 0.000000 0.000000 0.505302 15.934038 2.905823 -74.752283 26.085060 11.669145 -0.913131 -70.570292 0.005380 -2.797672 1.667050 -0.039117 0.039799 0.083123 0.000000 0.000000 0.000000 0.000000 0.000000 0.000000 0.000000 7.935062 -0.959721 1.078824 54.242981 22.859203 18.822286 179.512459 84.055195 -179.988773 0.502657 5.987187 0.026545 0.050009 -0.496391 -0.000000 0.000000 0.000000 0.000000 0.000000 0.000000 0.000000 
-9.286263 14.812521 -1.278627 -43.228347 79.047290 -13.389350 -4.787264 1.626734 7.431245 -1.820952 2.005574 -1.588293 -5.410327 2.002161 -0.191386 9.938668 -7.955476 -8.689248 -1.873602 -0.098748 -0.726860 0.000000 0.000000 0.000000 0.331709 15.579495 2.929943 -74.327594 25.190168 11.524444 -0.934741 -70.176535 0.005081 -2.576476 1.784452 -0.038689 0.035395 0.083627 0.000000 0.000000 0.000000 0.000000 0.000000 0.000000 0.000000 8.319702 -0.778159 1.115996 54.733747 22.196513 18.894667 179.544749 84.511873 -179.989207 0.432117 6.021403 0.022565 0.051050 -0.495479 -0.000000 0.000000 0.000000 0.000000 0.000000 0.000000 0.000000 
-9.080701 14.788902 -1.271154 -42.522819 79.125383 -12.797819 -5.134904 1.603446 7.485616 -1.917940 1.982570 -1.603278 -5.513735 1.978082 -0.285852 10.022811 -7.786716 -8.652994 -1.953281 -0.104999 -0.722512 0.000000 0.000000 0.000000 0.158878 15.213479 2.957827 -73.911173 24.147896 11.354712 -0.958790 -69.704612 0.004687 -2.301192 1.917748 -0.037155 0.029980 0.084628 0.000000 0.000000 0.000000 0.000000 0.000000 0.000000 0.000000 8.698694 -0.598919 1.145912 55.298484 21.519473 18.933088 179.587874 85.113555 -179.989813 0.343703 6.052729 0.017584 0.052005 -0.493657 -0.000000 0.000000 0.000000 0.000000 0.000000 0.000000 0.000000 
-8.879033 14.769393 -1.264435 -41.886408 79.224377 -12.240890 -5.442386 1.573771 7.535433 -2.005615 1.952161 -1.617844 -5.614789 1.946286 -0.379774 10.082914 -7.605367 -8.610574 -2.036604 -0.111567 -0.716956 0.000000 0.000000 0.000000 -0.015445 14.826085 2.988392 -73.506087 22.987195 11.138513 -0.984350 -69.180376 0.004189 -1.975161 2.061104 -0.034314 0.023708 0.086190 0.000000 0.000000 0.000000 0.000000 0.000000 0.000000 0.000000 9.071999 -0.417398 1.170286 55.935321 20.825345 18.930482 179.641284 85.862666 -179.990548 0.244249 6.079488 0.011899 0.052711 -0.490903 -0.000000 0.000000 0.000000 0.000000 0.000000 0.000000 0.000000 
-8.681403 14.754088 -1.258406 -41.328363 79.333934 -11.727668 -5.706825 1.539586 7.578332 -2.083326 1.916361 -1.632209 -5.712954 1.908821 -0.472015 10.120998 -7.411371 -8.562588 -2.122955 -0.118400 -0.710248 0.000000 0.000000 0.000000 -0.185415 14.424586 3.020544 -73.118196 21.715203 10.872928 -1.011092 -68.613511 0.003575 -1.603563 2.206821 -0.029770 0.016700 0.088412 0.000000 0.000000 0.000000 0.000000 0.000000 0.000000 0.000000 9.439631 -0.233530 1.189777 56.636961 20.119241 18.879451 179.704177 86.759787 -179.991364 0.140882 6.101578 0.006010 0.053000 -0.487218 0.000000 0.000000 0.000000 0.000000 0.000000 0.000000 0.000000 
